<svg xmlns="http://www.w3.org/2000/svg" xmlns:xlink="http://www.w3.org/1999/xlink" xmlns:inkscape="http://www.inkscape.org/namespaces/inkscape" version="1.1" width="595.2756" height="595.2756" viewBox="0 0 595.2756 595.2756">
<path transform="matrix(1,0,0,-1,0,595.2756)" d="M0 595.2756H595.2756V0H0Z" fill="#f597a3" fill-rule="evenodd"/>
<text fill="#ffffff" xml:space="preserve" transform="matrix(1 0 -0 1 0 595.2756)" font-size="21.47" font-family="ZayobeRegular"><tspan y="-257.7801" x="267.5375 279.9552 291.2992 302.6435 307.13075 313.0642 326.08293 336.9977 348.342 356.4012 365.97685 371.9104 388.0424 399.34379 414.50968 425.85368 437.34849 444.97819">Feel Every Moments</tspan></text>
<text fill="#ffffff" xml:space="preserve" transform="matrix(1 0 -0 1 0 595.2756)" font-size="67.977" font-family="ElegancyRegular"><tspan y="-282.9214" x="140.1007">B</tspan></text>
<text fill="#ffffff" xml:space="preserve" transform="matrix(1 0 -0 1 0 595.2756)" font-size="67.977" font-family="ElegancyRegular"><tspan y="-282.9214" x="180.0031">L</tspan></text>
<text fill="#ffffff" xml:space="preserve" transform="matrix(1 0 -0 1 0 595.2756)" font-size="67.977" font-family="ElegancyRegular"><tspan y="-282.9214" x="214.3315">O</tspan></text>
<text fill="#ffffff" xml:space="preserve" transform="matrix(1 0 -0 1 0 595.2756)" font-size="67.977" font-family="ElegancyRegular"><tspan y="-282.9214" x="260.352">O</tspan></text>
<text fill="#ffffff" xml:space="preserve" transform="matrix(1 0 -0 1 0 595.2756)" font-size="67.977" font-family="ElegancyRegular"><tspan y="-282.9214" x="304.8089">M</tspan></text>
<path transform="matrix(1,0,0,-1,0,595.2756)" d="M368.0963 293.0272V324.0247H367.7564L356.6081 319.4135V319.2094C358.9191 317.7142 359.5311 313.4356 359.5311 309.5002V292.8915C359.5311 288.8991 358.9191 284.6211 356.6081 283.1255V282.9214H371.0191V283.1255C368.708 284.6211 368.0963 289.0281 368.0963 293.0272" fill="#ffffff"/>
<text fill="#ffffff" xml:space="preserve" transform="matrix(1 0 -0 1 0 595.2756)" font-size="67.977" font-family="ElegancyRegular"><tspan y="-282.9214" x="372.4461">N</tspan></text>
<text fill="#ffffff" xml:space="preserve" transform="matrix(1 0 -0 1 0 595.2756)" font-size="67.977" font-family="ElegancyRegular"><tspan y="-282.9214" x="413.0286">A</tspan></text>
<path transform="matrix(1,0,0,-1,0,595.2756)" d="M366.5659 339.4485C366.7966 339.6821 367.0177 339.9188 367.2629 340.1453 367.9033 340.736 368.7823 341.3066 369.5326 341.6641 372.1025 342.8892 375.2456 342.455 375.8491 339.5373 377.2196 332.9144 370.0035 331.6368 366.2314 328.7018 363.9421 326.9205 364.1817 325.8774 363.7108 325.4598 362.3547 325.8955 360.8294 327.6505 360.1522 328.5388 356.8717 332.843 355.1831 338.1735 357.4973 343.3538 358.1144 344.7357 359.3259 346.1814 360.6384 346.7452 362.2552 347.44 363.7684 346.8674 364.8736 345.5549 366.0148 344.2 366.4636 342.2886 366.537 340.5569 366.5466 340.3273 366.52 339.5458 366.5659 339.4485" fill="#ffffff" fill-rule="evenodd"/>
</svg>
